HIERARCHY
ROOT Pelvis
{
	OFFSET 0.000000 0.000000 0.000000
	CHANNELS 6 Xposition Yposition Zposition Zrotation Yrotation Xrotation 
	JOINT Left_hip
	{
		OFFSET 0.068973 -0.091024 -0.007589
		CHANNELS 3 Zrotation Yrotation Xrotation
		JOINT Left_knee
		{
			OFFSET 0.036482 -0.391037 -0.003979
			CHANNELS 3 Zrotation Yrotation Xrotation
			JOINT Left_ankle
			{
				OFFSET -0.012239 -0.415469 -0.043440
				CHANNELS 3 Zrotation Yrotation Xrotation
				JOINT Left_foot
				{
					OFFSET 0.023806 -0.058558 0.118702
					CHANNELS 3 Zrotation Yrotation Xrotation
					End Site
					{
						OFFSET 0.000000 0.000000 0.000000
					}
				}
			}
		}
	}
	JOINT Right_hip
	{
		OFFSET -0.066552 -0.090468 -0.003847
		CHANNELS 3 Zrotation Yrotation Xrotation
		JOINT Right_knee
		{
			OFFSET -0.042435 -0.398340 -0.006400
			CHANNELS 3 Zrotation Yrotation Xrotation
			JOINT Right_ankle
			{
				OFFSET 0.014931 -0.415421 -0.041327
				CHANNELS 3 Zrotation Yrotation Xrotation
				JOINT Right_foot
				{
					OFFSET -0.021472 -0.049410 0.121889
					CHANNELS 3 Zrotation Yrotation Xrotation
					End Site
					{
						OFFSET 0.000000 0.000000 0.000000
					}
				}
			}
		}
	}
	JOINT Spine1
	{
		OFFSET -0.002904 0.105700 -0.022855
		CHANNELS 3 Zrotation Yrotation Xrotation
		JOINT Spine2
		{
			OFFSET 0.004179 0.132554 -0.002501
			CHANNELS 3 Zrotation Yrotation Xrotation
			JOINT Spine3
			{
				OFFSET 0.001987 0.049603 0.025988
				CHANNELS 3 Zrotation Yrotation Xrotation
				JOINT Neck
				{
					OFFSET -0.003935 0.211336 -0.045638
					CHANNELS 3 Zrotation Yrotation Xrotation
					JOINT Head
					{
						OFFSET 0.003906 0.065991 0.051018
						CHANNELS 3 Zrotation Yrotation Xrotation
						End Site
						{
							OFFSET 0.000000 0.000000 0.000000
						}
					}
				}
				JOINT Left_collar
				{
					OFFSET 0.072882 0.117751 -0.036270
					CHANNELS 3 Zrotation Yrotation Xrotation
					JOINT Left_shoulder
					{
						OFFSET 0.082118 0.032630 -0.005771
						CHANNELS 3 Zrotation Yrotation Xrotation
						JOINT Left_elbow
						{
							OFFSET 0.263305 -0.015144 -0.028095
							CHANNELS 3 Zrotation Yrotation Xrotation
							JOINT Left_wrist
							{
								OFFSET 0.250741 0.010115 -0.000759
								CHANNELS 3 Zrotation Yrotation Xrotation
								JOINT Left_palm
								{
									OFFSET 0.080683 -0.009989 -0.013613
									CHANNELS 3 Zrotation Yrotation Xrotation
									End Site
									{
										OFFSET 0.000000 0.000000 0.000000
									}
								}
							}
						}
					}
				}
				JOINT Right_collar
				{
					OFFSET -0.074811 0.116132 -0.040385
					CHANNELS 3 Zrotation Yrotation Xrotation
					JOINT Right_shoulder
					{
						OFFSET -0.085089 0.032943 -0.007484
						CHANNELS 3 Zrotation Yrotation Xrotation
						JOINT Right_elbow
						{
							OFFSET -0.254763 -0.014219 -0.020321
							CHANNELS 3 Zrotation Yrotation Xrotation
							JOINT Right_wrist
							{
								OFFSET -0.256597 0.009233 -0.005063
								CHANNELS 3 Zrotation Yrotation Xrotation
								JOINT Right_palm
								{
									OFFSET -0.080528 -0.007219 -0.010379
									CHANNELS 3 Zrotation Yrotation Xrotation
									End Site
									{
										OFFSET 0.000000 0.000000 0.000000
									}
								}
							}
						}
					}
				}
			}
		}
	}
}
MOTION
Frames: 14
Frame Time: 0.100000
0.179718 0.405412 -0.386915 175.617248 19.956491 -52.031127 1.425372 5.054460 -32.254707 -14.159877 12.996853 54.431246 -11.903239 8.110720 11.605284 21.828783 8.278801 -19.067727 4.979144 1.330097 -34.104475 9.956607 -14.899656 72.880096 -2.117328 -1.001077 -2.118263 -6.106435 0.137775 -12.280048 1.291064 -0.818722 37.463230 0.824405 -3.890472 27.804570 3.408486 2.900584 -9.886302 -7.196147 4.569463 -7.352585 6.147743 -2.200478 -32.644880 -20.421105 -38.241516 13.283085 -26.380580 -20.840699 7.357678 -6.775743 -52.564015 30.565249 13.654091 -19.975578 24.917433 -8.888381 -8.076896 -18.451133 23.327380 46.657697 18.505363 22.021690 25.789513 -3.007285 -8.392172 46.989080 3.049387 -18.418492 19.124765 6.684090 10.451290 2.069750 -2.268026 
0.177868 0.401186 -0.382791 175.594394 20.243211 -49.717485 1.148724 4.800901 -34.605439 -14.350301 13.249068 54.116829 -12.328151 9.343857 13.864258 23.035186 7.480785 -19.328762 4.919785 0.771352 -35.803336 9.759887 -15.442154 71.946495 -2.420072 -2.232137 0.740887 -7.897299 0.686814 -13.527839 1.353000 -0.815451 39.747785 0.279408 -3.759612 26.711455 3.434548 2.891638 -9.352679 -7.388584 3.812678 -8.505565 6.676174 -1.731478 -32.981415 -20.387283 -38.170164 12.890758 -27.454704 -22.164753 5.520548 -0.595458 -43.418718 20.988081 13.472164 -17.261315 26.349856 -7.373144 -7.499282 -16.918859 22.712138 46.561063 18.068273 23.878412 26.082986 -2.608520 -5.856318 36.489646 4.978589 -16.661313 16.867950 10.606559 8.905949 2.744388 -2.083775 
0.176614 0.396860 -0.380036 175.468394 20.286985 -47.031743 0.825740 4.535041 -36.985706 -14.086644 14.311120 53.373200 -11.580596 9.779970 15.631069 23.091944 7.303022 -19.313927 4.465580 0.763506 -38.423969 9.926705 -15.697236 71.794181 -1.409187 -2.205896 2.075898 -10.078413 0.916788 -14.222818 1.319076 -0.874809 41.667593 -0.289735 -3.775042 25.614847 3.389540 2.863881 -8.729462 -7.738787 3.521385 -8.325642 7.484119 -0.992125 -33.429260 -18.692819 -38.231478 11.761390 -29.355177 -23.034641 4.711219 2.630179 -39.876465 14.867706 10.721081 -13.974601 24.510897 -6.913063 -7.170561 -16.680345 20.646410 46.809005 16.938552 26.769448 27.389084 -1.604989 -5.801578 31.241951 4.882319 -13.458882 14.310109 11.190537 8.064873 3.064191 -2.614990 
0.175453 0.392386 -0.376814 175.573943 19.720752 -44.253719 0.865548 4.219215 -39.341964 -13.789158 15.050750 52.762954 -10.603291 9.636014 16.842635 22.211428 7.802763 -18.536983 4.479563 0.775658 -40.465221 9.992453 -16.497309 71.250102 -1.713047 -1.867366 1.849122 -9.723027 0.342967 -13.765275 1.144185 -0.770817 43.200571 -0.655117 -3.773802 24.740539 3.437359 2.746631 -8.090321 -7.756745 3.986895 -6.943450 7.712187 -0.431257 -34.166258 -17.043943 -38.791152 10.939723 -30.977862 -22.584826 5.083481 3.941928 -38.745390 12.546409 12.565441 -13.237352 20.861130 -6.053582 -6.011622 -15.387071 18.267297 47.275564 15.686266 28.542420 27.703856 0.172205 -4.847631 33.191863 8.960350 -16.326577 14.267698 11.618923 7.585066 2.455342 -2.526021 
0.172549 0.389509 -0.373745 175.696723 19.205049 -42.248812 0.967915 4.010018 -41.057197 -13.786419 15.573347 52.725319 -10.096196 9.488619 16.302433 21.724917 7.982431 -17.653273 4.398584 0.657429 -41.911998 10.119697 -17.141006 71.055230 -2.177889 -1.697947 1.663501 -9.423757 0.161524 -13.619987 0.841450 -1.024631 44.966832 -1.476050 -3.938219 23.105369 3.261396 2.519223 -6.718902 -7.447398 3.720286 -4.672227 7.910183 1.647599 -34.762760 -15.069870 -38.552426 9.558597 -33.926057 -22.581998 5.385718 8.148059 -40.265901 3.160217 16.001321 -11.322050 10.865116 -6.285393 -4.637088 -13.126128 12.924362 47.679375 12.383122 29.313320 30.126378 1.217300 -3.020597 32.838214 10.000924 -19.116237 12.655361 7.159814 6.855428 1.710179 -1.260057 
0.170011 0.387032 -0.370587 175.983880 19.176179 -40.509262 0.768658 4.176201 -42.191190 -14.066078 16.396323 52.368067 -9.383779 9.042295 15.870552 20.507250 8.350299 -17.152143 3.955059 0.335278 -43.389360 9.928582 -17.506693 71.463093 -1.101012 -1.500524 1.326733 -11.618649 -0.716319 -13.921550 0.793612 -1.267462 46.182025 -2.514485 -3.837323 22.010876 2.973571 2.559200 -5.664745 -7.753850 3.935878 -1.462606 8.479652 2.869197 -35.851533 -11.726437 -39.147932 7.335657 -36.725282 -23.429432 5.743808 11.253908 -39.457570 2.175595 15.920475 -9.816872 10.789971 -5.723104 -3.999936 -13.728737 6.440375 47.942850 8.461994 32.196271 31.501952 1.843352 -3.954023 32.149635 9.940380 -19.312007 11.673430 4.585872 6.559048 1.428391 -1.630406 
0.170217 0.384445 -0.367085 175.984903 19.358884 -38.900891 0.989955 4.419323 -43.649201 -14.282740 16.984108 52.447644 -9.437748 8.110290 16.076542 19.510373 9.104259 -16.868273 4.003083 0.296949 -44.501560 9.396511 -18.253350 71.309660 -1.400928 -1.533369 0.481828 -12.136444 -1.548882 -13.210679 0.645888 -1.402874 46.799149 -2.649406 -3.767442 20.938147 3.077466 2.558068 -4.640923 -8.362935 4.781065 2.431439 8.359087 3.054849 -37.287071 -7.745507 -38.696621 4.950179 -39.119925 -24.338047 6.514642 11.824123 -38.769134 3.488034 17.331422 -9.463449 10.022956 -4.778964 -2.844991 -13.291244 1.918113 47.485668 5.301158 34.738517 33.379585 2.885032 -4.226738 30.853785 11.245343 -21.129268 11.636928 3.782765 5.995556 0.764451 -1.372425 
0.171163 0.382333 -0.364664 175.792347 19.927045 -37.936017 1.249287 4.333819 -44.552101 -14.376269 17.469100 52.569666 -9.325862 6.411834 16.232197 17.816797 10.507523 -16.359804 3.893104 0.130293 -45.204945 8.692694 -18.773002 71.342437 -1.464374 -0.978102 0.010030 -12.239800 -2.866647 -12.474668 0.378963 -1.253358 47.550590 -2.235650 -3.950690 19.927411 3.464850 2.545817 -3.790346 -8.830588 6.221480 6.814593 8.430534 3.495320 -38.596791 -4.215899 -38.106911 2.581045 -41.897456 -25.114269 7.695042 12.544695 -38.695308 4.912779 17.472265 -9.245414 9.762299 -3.938516 -1.873537 -13.151958 -1.965765 46.295285 2.647789 37.098537 34.204344 3.974706 -4.672225 31.118338 11.874329 -21.344390 11.669487 2.272473 5.798991 0.152609 -1.482994 
0.170716 0.381107 -0.364275 175.280882 20.212911 -37.319077 1.373973 4.216905 -45.265494 -14.510935 17.417535 52.595624 -9.397189 6.199520 16.520770 17.287502 10.902394 -16.722548 3.837015 -0.088679 -45.736704 8.506142 -19.244034 71.249789 -0.667959 -1.023258 -0.187489 -13.629876 -3.245039 -12.144379 0.673973 -1.366069 48.116278 -2.072250 -3.875412 19.077376 3.764626 2.581754 -2.724426 -8.672147 6.953524 9.329410 8.652532 3.770632 -39.086616 -1.270714 -37.692063 1.054110 -43.901584 -26.270500 8.091053 12.658602 -38.801233 6.021670 17.861883 -9.321802 8.969438 -4.325677 -1.574208 -13.391931 -4.893018 45.436377 0.830385 38.673859 33.959203 4.079500 -5.528878 32.476069 11.853767 -21.647996 11.771561 1.340759 6.195068 0.016479 -1.918141 
0.168671 0.379468 -0.364412 174.914953 20.178946 -36.651277 1.251334 4.082296 -45.910784 -14.476921 17.617197 52.156444 -8.934422 6.497798 16.592925 16.900409 10.971422 -16.637521 3.568762 -0.265824 -46.537746 8.508711 -19.751410 71.171264 0.382777 -0.788936 -0.230688 -14.923261 -3.527133 -11.938663 0.870867 -1.420874 48.425205 -2.037274 -3.845306 18.063522 3.935797 2.561396 -1.662608 -8.615595 7.748646 12.427312 8.638217 4.594253 -38.838184 1.355129 -36.989342 -0.261956 -45.810665 -27.173596 8.650816 12.412675 -38.395239 7.048385 18.883346 -9.559374 7.336305 -4.412665 -0.933230 -13.141206 -7.713724 44.324115 -1.022384 40.401664 34.141954 4.506591 -5.700707 33.175553 11.904179 -22.394733 11.948731 0.025663 6.315283 -0.413660 -1.986995 
0.166179 0.378308 -0.363577 174.850153 19.914842 -36.402112 1.192339 4.167649 -45.908040 -14.461211 17.845391 51.963726 -8.553106 6.639545 16.241548 16.829124 10.923409 -16.242383 3.457791 -0.451514 -46.555923 8.564539 -20.084215 71.134308 0.473760 -0.525198 -0.446850 -14.753015 -3.644769 -11.653117 0.857935 -1.413804 48.249431 -1.979500 -3.963916 17.871834 3.802425 2.542247 -1.646752 -8.760133 8.433646 14.658304 8.158324 4.948837 -37.418217 1.733510 -36.624000 -0.465506 -46.297300 -27.878709 9.122947 11.822789 -36.788146 8.186361 19.383689 -9.740286 7.670545 -4.149692 -0.606108 -12.969715 -7.781867 44.030348 -1.332649 41.303784 35.068788 5.262969 -5.884811 31.328827 11.690842 -22.855059 12.040689 0.198762 6.206912 -0.660240 -1.855688 
0.166353 0.378849 -0.362677 174.911473 19.543735 -36.677409 1.449537 4.381853 -45.495038 -14.541940 17.942613 52.104048 -8.282480 6.786196 15.448859 16.998177 10.763275 -15.960972 3.642768 -0.396588 -46.159904 8.743403 -20.062084 71.236470 0.496533 -0.407524 -0.373495 -14.526232 -3.532457 -11.909044 0.458938 -1.145671 48.438424 -1.925225 -4.014543 17.601660 3.617936 2.600455 -2.035925 -8.943837 8.965216 13.924576 7.874979 5.190452 -37.030829 1.274329 -36.211485 -0.282173 -46.223319 -27.804067 9.594614 11.243088 -36.325811 8.849045 19.197396 -9.702841 8.114840 -3.819285 -0.413873 -12.765524 -6.485177 44.035222 -0.773134 41.699213 35.922785 6.021398 -5.925409 29.591120 11.712861 -22.706403 11.882213 0.720460 5.892979 -0.838911 -1.382639 
0.166707 0.379447 -0.363712 174.326986 20.044976 -36.837983 1.311428 3.981874 -45.970384 -14.385009 17.730851 52.260638 -8.229775 6.723640 15.990428 16.619929 10.784802 -16.230450 3.528418 -0.706695 -46.483913 8.679443 -20.316250 71.227208 0.403551 -0.537379 -0.233485 -14.425845 -3.498139 -11.908809 0.634382 -1.250434 48.078679 -1.867021 -4.088708 17.579549 3.709910 2.546370 -1.932269 -9.059251 8.847346 13.578553 7.942079 5.186987 -36.865546 1.495636 -36.695193 -0.296191 -45.814517 -27.857513 9.358487 10.677768 -36.212413 9.074292 19.571858 -9.719537 7.563262 -3.870727 -0.445071 -12.681451 -6.826393 44.199293 -0.904472 41.636664 35.552102 5.740395 -5.823762 29.647751 11.377565 -23.236811 11.848111 0.356162 6.095071 -0.726879 -1.619081 
0.167392 0.380329 -0.365162 174.344615 20.259972 -37.315248 1.188694 3.915425 -45.546863 -14.393527 17.602964 52.051513 -8.262383 6.723465 16.044273 16.571324 10.778349 -16.081834 3.420038 -0.841793 -46.139944 8.634222 -20.296480 71.150999 0.483916 -0.461483 -0.107098 -14.476160 -3.574437 -11.972934 0.736551 -1.124394 47.862286 -2.195494 -3.907428 17.971755 3.530234 2.683152 -1.955352 -9.492121 9.028717 14.244904 7.885791 5.139705 -37.081084 1.472127 -37.170318 -0.520923 -45.940500 -28.291461 9.363042 11.000807 -35.194736 8.385517 19.337849 -9.894960 7.850767 -3.769576 -0.394855 -12.828153 -7.297151 44.475379 -1.083231 41.619606 35.290684 5.489163 -5.777050 29.015960 11.018352 -22.964893 11.975593 0.188935 6.123633 -0.694270 -1.748485 
